<svg width="16" height="16" viewBox="0 0 16 16" fill="none" xmlns="http://www.w3.org/2000/svg">
<g id="&#236;&#149;&#132;&#236;&#157;&#180;&#236;&#189;&#152; / &#235;&#136;&#136;(&#234;&#176;&#144;&#236;&#182;&#164;)" clip-path="url(#clip0_6398_1889)">
<path id="Vector" d="M7.99996 4.66667C9.83996 4.66667 11.3333 6.16 11.3333 8C11.3333 8.43 11.2466 8.84 11.0966 9.21667L13.0466 11.1667C14.0533 10.3267 14.8466 9.24 15.3366 8C14.18 5.07333 11.3366 3 7.99996 3C7.06663 3 6.17329 3.16667 5.34329 3.46667L6.78329 4.90333C7.15996 4.75667 7.56996 4.66667 7.99996 4.66667ZM1.33329 2.85L2.85329 4.37L3.15663 4.67333C2.05663 5.53333 1.18663 6.67667 0.666626 8C1.81996 10.9267 4.66663 13 7.99996 13C9.03329 13 10.02 12.8 10.9233 12.4367L11.2066 12.72L13.15 14.6667L14 13.82L2.18329 2L1.33329 2.85ZM5.01996 6.53333L6.04996 7.56333C6.01996 7.70667 5.99996 7.85 5.99996 8C5.99996 9.10333 6.89663 10 7.99996 10C8.14996 10 8.29329 9.98 8.43329 9.95L9.46329 10.98C9.01996 11.2 8.52663 11.3333 7.99996 11.3333C6.15996 11.3333 4.66663 9.84 4.66663 8C4.66663 7.47333 4.79996 6.98 5.01996 6.53333ZM7.88996 6.01L9.98996 8.11L9.99996 8C9.99996 6.89667 9.10329 6 7.99996 6L7.88996 6.01Z" fill="#FEFEFE"/>
</g>
<defs>
<clipPath id="clip0_6398_1889">
<rect width="16" height="16" fill="white"/>
</clipPath>
</defs>
</svg>
